<svg width="72" height="83" viewBox="0 0 72 83" fill="none" xmlns="http://www.w3.org/2000/svg">
<path fill-rule="evenodd" clip-rule="evenodd" d="M36 23.5C36.6482 23.5 37.2049 23.9607 37.3262 24.5974C38.1881 29.1224 39.8885 32.5669 42.4109 35.0892C44.9332 37.6114 48.3777 39.3119 52.9025 40.1738C53.5394 40.2951 54 40.8518 54 41.5C54 42.1482 53.5394 42.7049 52.9025 42.8262C48.3777 43.6881 44.9332 45.3885 42.4109 47.9109C39.8885 50.4332 38.1881 53.8777 37.3262 58.4025C37.2049 59.0394 36.6482 59.5 36 59.5C35.3518 59.5 34.7951 59.0394 34.6738 58.4025C33.8119 53.8777 32.1114 50.4332 29.5892 47.9109C27.0669 45.3885 23.6224 43.6881 19.0974 42.8262C18.4607 42.7049 18 42.1482 18 41.5C18 40.8518 18.4607 40.2951 19.0974 40.1738C23.6224 39.3119 27.0669 37.6114 29.5892 35.0892C32.1114 32.5669 33.8119 29.1224 34.6738 24.5974C34.7951 23.9607 35.3518 23.5 36 23.5ZM35.4044 37.9901L33.259 39.2287C32.8902 39.4416 32.663 39.8352 32.663 40.2609V42.7381C32.663 43.1639 32.8902 43.5574 33.259 43.7703L35.4044 45.0089C35.7732 45.2219 36.2274 45.2219 36.5962 45.0089L38.7417 43.7703C39.1104 43.5574 39.3376 43.1639 39.3376 42.7381V40.2609C39.3376 39.8352 39.1104 39.4416 38.7417 39.2287L36.5962 37.9901C36.2274 37.7772 35.7732 37.7772 35.4044 37.9901Z" fill="#188D52"/>
</svg>
