<svg width="48" height="48" viewBox="0 0 48 48" fill="none" xmlns="http://www.w3.org/2000/svg">
<!-- <rect width="48" height="48" rx="8" fill="#343434"/> -->
<path d="M17.9596 22.1243V21.916C17.9596 18.8094 20.6646 16.291 24.0013 16.291C27.3381 16.291 30.043 18.8094 30.043 21.916V22.1243M24.0013 30.3684V30.8743C24.0013 31.3346 24.3744 31.7077 24.8346 31.7077H26.5013C28.5724 31.7077 30.2513 30.0288 30.2513 27.9577M17.543 22.1243H18.793V27.541H17.543C16.8526 27.541 16.293 26.9813 16.293 26.291V23.3743C16.293 22.684 16.8526 22.1243 17.543 22.1243ZM29.2096 22.1243H30.4596C31.15 22.1243 31.7096 22.684 31.7096 23.3743V26.291C31.7096 26.9813 31.15 27.541 30.4596 27.541H29.2096V22.1243Z" stroke="#A0A0A0" stroke-width="1.5" stroke-linecap="round" stroke-linejoin="round"/>
</svg>
