<svg width="48" height="48" viewBox="0 0 48 48" fill="none" xmlns="http://www.w3.org/2000/svg">
<path d="M21.9004 17.4461L23.3872 16.6098C23.7677 16.3957 24.2323 16.3957 24.6128 16.6097L26.0997 17.4461M28.6419 18.8761L30.2378 19.7738C30.6314 19.9952 30.875 20.4117 30.875 20.8633V22.5411M30.875 25.4578V27.1355C30.875 27.5872 30.6314 28.0036 30.2378 28.225L28.6419 29.1228M26.0997 30.5528L24.6128 31.3891C24.2323 31.6031 23.7677 31.6031 23.3872 31.3891L21.9004 30.5528M19.3581 29.1228L17.7622 28.225C17.3686 28.0036 17.125 27.5871 17.125 27.1355V25.4578M17.125 22.5411V20.8633C17.125 20.4117 17.3686 19.9952 17.7622 19.7738L19.3581 18.8761M24 25.8744V23.9994M24 23.9994L25.6237 23.0619M24 23.9994L22.3762 23.0619M24 16.6817V19.2077M24 28.752V31.3171M19.7073 26.3757L17.445 27.6818M17.445 20.317L19.6734 21.6036M30.5549 20.317L28.3265 21.6036M28.2927 26.3757L30.5549 27.6818" stroke="#A0A0A0" stroke-width="1.5" stroke-linecap="round" stroke-linejoin="round"/>
</svg>
