<svg width="48" height="48" viewBox="0 0 48 48" fill="none" xmlns="http://www.w3.org/2000/svg">
<path d="M25.875 24.2083C26.9105 24.2083 27.75 23.3688 27.75 22.3333C27.75 21.2978 26.9105 20.4583 25.875 20.4583M25.875 24.2083C25.3042 24.2083 24.793 23.9532 24.4491 23.5509M25.875 24.2083V30.875M25.875 20.4583C24.8395 20.4583 24 21.2978 24 22.3333C24 22.7981 24.1691 23.2233 24.4491 23.5509M25.875 20.4583V17.125M24.4491 23.5509L21.5 26.5L19.8333 24.8333L17.3333 27.3333M25.875 30.875H19.625C18.2443 30.875 17.125 29.7557 17.125 28.375V19.625C17.125 18.2443 18.2443 17.125 19.625 17.125H25.875M25.875 30.875H28.375C29.7557 30.875 30.875 29.7557 30.875 28.375V19.625C30.875 18.2443 29.7557 17.125 28.375 17.125H25.875" stroke="#A0A0A0" stroke-width="1.5" stroke-linecap="round" stroke-linejoin="round"/>
</svg>
