<svg width="48" height="48" viewBox="0 0 48 48" fill="none" xmlns="http://www.w3.org/2000/svg">
<path d="M24.0013 19.209V15.459M24.0013 30.8757V27.1257M20.043 23.1673H16.293M31.7096 23.1673H27.9596M21.2023 20.3683L19.8346 19.0007M28.168 27.334L26.8002 25.9662M26.8003 20.3683L28.168 19.0007M17.1263 31.709C18.1679 29.0007 19.4518 27.537 21.2024 25.9662M25.2513 23.1673C25.2513 23.8577 24.6916 24.4173 24.0013 24.4173C23.311 24.4173 22.7513 23.8577 22.7513 23.1673C22.7513 22.477 23.311 21.9173 24.0013 21.9173C24.6916 21.9173 25.2513 22.477 25.2513 23.1673Z" stroke="#A0A0A0" stroke-width="1.5" stroke-linecap="round" stroke-linejoin="round"/>
</svg>
