<svg width="48" height="48" viewBox="0 0 48 48" fill="none" xmlns="http://www.w3.org/2000/svg">
<path d="M30.0404 18.4322C30.0404 19.6148 27.3354 20.5734 23.9987 20.5734C20.662 20.5734 17.957 19.6148 17.957 18.4322M30.0404 18.4322C30.0404 17.2497 27.3354 16.291 23.9987 16.291C20.662 16.291 17.957 17.2497 17.957 18.4322M30.0404 18.4322V29.5665C30.0404 30.749 27.3354 31.7077 23.9987 31.7077C20.662 31.7077 17.957 30.749 17.957 29.5665V18.4322M30.0404 22.0658C30.0404 23.2483 27.3354 24.2069 23.9987 24.2069C20.662 24.2069 17.957 23.2483 17.957 22.0658M30.0404 25.6074C30.0404 26.79 27.3354 27.7486 23.9987 27.7486C20.662 27.7486 17.957 26.79 17.957 25.6074" stroke="#A0A0A0" stroke-width="1.5" stroke-linecap="round" stroke-linejoin="round"/>
</svg>
