<svg width="48" height="48" viewBox="0 0 48 48" fill="none" xmlns="http://www.w3.org/2000/svg">

<path fill-rule="evenodd" clip-rule="evenodd" d="M22.4236 23.1597C22.0415 23.4046 21.918 23.6673 21.918 23.8611C21.918 24.0549 22.0415 24.3177 22.4236 24.5626C22.7986 24.803 23.3548 24.9723 24.0013 24.9723C24.6478 24.9723 25.204 24.803 25.5791 24.5626C25.9611 24.3177 26.0846 24.0549 26.0846 23.8611C26.0846 23.6673 25.9611 23.4046 25.5791 23.1597C25.204 22.9192 24.6478 22.75 24.0013 22.75C23.3548 22.75 22.7986 22.9192 22.4236 23.1597ZM26.0846 25.7161C25.5036 26.0408 24.7736 26.2222 24.0013 26.2222C23.229 26.2222 22.499 26.0408 21.918 25.7161V29.0694C21.918 29.2632 22.0415 29.526 22.4236 29.7709C22.7986 30.0113 23.3548 30.1806 24.0013 30.1806C24.6478 30.1806 25.204 30.0113 25.5791 29.7709C25.9611 29.526 26.0846 29.2632 26.0846 29.0694V25.7161ZM27.3346 23.8611C27.3346 23.0961 26.8519 22.4907 26.2536 22.1073C25.6486 21.7195 24.8506 21.5 24.0013 21.5C23.1521 21.5 22.354 21.7195 21.7489 22.1073C21.1507 22.4907 20.668 23.0961 20.668 23.8611V32.5417C20.668 32.8868 20.9478 33.1667 21.293 33.1667C21.6381 33.1667 21.918 32.8868 21.918 32.5417V30.9244C22.499 31.2491 23.229 31.4306 24.0013 31.4306C24.7736 31.4306 25.5036 31.2491 26.0846 30.9244V32.5417C26.0846 32.8868 26.3645 33.1667 26.7096 33.1667C27.0548 33.1667 27.3346 32.8868 27.3346 32.5417V23.8611Z" fill="#A0A0A0"/>
<path d="M17.8693 18.3462C17.9921 18.1008 18.3425 18.1008 18.4653 18.3462C19.0939 19.6027 19.2295 19.7381 20.4864 20.3662C20.732 20.4889 20.732 20.8391 20.4864 20.9618C19.2295 21.5899 19.0939 21.7252 18.4653 22.9817C18.3425 23.2272 17.9921 23.2272 17.8693 22.9817C17.2407 21.7252 17.1051 21.5899 15.8482 20.9618C15.6027 20.8391 15.6027 20.4889 15.8482 20.3662C17.1051 19.7381 17.2407 19.6027 17.8693 18.3462Z" fill="#A0A0A0"/>
<path d="M23.6974 15.018C23.8202 14.7726 24.1706 14.7726 24.2934 15.018C24.922 16.2746 25.0576 16.4099 26.3145 17.038C26.5601 17.1607 26.5601 17.5109 26.3145 17.6337C25.0576 18.2618 24.922 18.3971 24.2934 19.6536C24.1706 19.8991 23.8202 19.8991 23.6974 19.6536C23.0689 18.3971 22.9333 18.2618 21.6763 17.6337C21.4308 17.5109 21.4308 17.1607 21.6763 17.038C22.9333 16.4099 23.0689 16.2746 23.6974 15.018Z" fill="#A0A0A0"/>
<path d="M29.5295 18.3462C29.6522 18.1008 30.0027 18.1008 30.1255 18.3462C30.7541 19.6027 30.8897 19.7381 32.1466 20.3662C32.3922 20.4889 32.3922 20.8391 32.1466 20.9618C30.8897 21.5899 30.7541 21.7252 30.1255 22.9817C30.0027 23.2272 29.6522 23.2272 29.5295 22.9817C28.9009 21.7252 28.7653 21.5899 27.5084 20.9618C27.2628 20.8391 27.2628 20.4889 27.5084 20.3662C28.7653 19.7381 28.9009 19.6027 29.5295 18.3462Z" fill="#A0A0A0"/>
</svg>
